# xmcd
#
# Track frame offsets: 
#        150
#        8556
#        21994
#        35723
#        48777
#        63302
#        76338
#        89377
#        103375
#        116841
#        129288
#        143653
#        153056
#        166671
#        178601
#        192625
#        206510
#        216759
#        226301
#        234672
#        244409
#        256238
#
# Disc length: 3593 seconds
#
# Revision: 0
# Processed by: cddbd v1.5.2PL0 Copyright (c) Steve Scherf et al.
# Submitted via: ExactAudioCopy v0.99pb5
#
DISCID=280e0716
DTITLE=Various Artist - VA La Collection en Or COUNTRY 2
DYEAR=2009
DGENRE=Country
TTITLE0=Johnny Cash - Country Boy
TTITLE1=Freddy Fender - I Can't Stop Loving You
TTITLE2=Lynn Anderson - Two Doors Down
TTITLE3=Kenny Rogers - Ruby Don't Take Your Love To Town
TTITLE4=TG Sheppard - Only One
TTITLE5=Ferlin Husky - I'd Be A Legend In My Time
TTITLE6=Dolly Parton - Little Blossom
TTITLE7=Stonewall Jackson - Keep Off The Grass
TTITLE8=Patys Cline - Life's Railway To Heaven
TTITLE9=Freddy Fender - Before The Next Teardrop Falls
TTITLE10=Exile - Woke Up In Love
TTITLE11=Johnny Tillotson - Tears On My Pillow
TTITLE12=Jack Greene - You Are My Treasure
TTITLE13=Moe Bandy - Let's Get Over Them Together
TTITLE14=Johnny Paycheck - I'm The Only Hell My Mama Ever Raised
TTITLE15=Lacy J. Dalton - Tennessee Waltz
TTITLE16=Dave Dudley - Six Days On The Road
TTITLE17=Lynn Anderson - Snowbird
TTITLE18=Waylon Jennings - Abilene
TTITLE19=Don Gibson - Sweet Dreams
TTITLE20=Roy Drusky - Luckenbach Texas
TTITLE21=Kenny Rogers - A Stranger In My Place
EXTD=
EXTT0=
EXTT1=
EXTT2=
EXTT3=
EXTT4=
EXTT5=
EXTT6=
EXTT7=
EXTT8=
EXTT9=
EXTT10=
EXTT11=
EXTT12=
EXTT13=
EXTT14=
EXTT15=
EXTT16=
EXTT17=
EXTT18=
EXTT19=
EXTT20=
EXTT21=
PLAYORDER=
